<svg width="19" height="19" viewBox="0 0 19 19" fill="none" xmlns="http://www.w3.org/2000/svg">
<path d="M0 6.12505V17.0501C0 17.554 0.200178 18.0372 0.556497 18.3936C0.912817 18.7499 1.39609 18.9501 1.9 18.9501H17.1C17.6039 18.9501 18.0872 18.7499 18.4435 18.3936C18.7998 18.0372 19 17.554 19 17.0501V6.12505H0ZM5.7 15.6251C5.7 15.877 5.59991 16.1186 5.42175 16.2968C5.24359 16.475 5.00196 16.5751 4.75 16.5751H3.8C3.54805 16.5751 3.30641 16.475 3.12825 16.2968C2.95009 16.1186 2.85 15.877 2.85 15.6251V14.6751C2.85 14.4231 2.95009 14.1815 3.12825 14.0033C3.30641 13.8251 3.54805 13.7251 3.8 13.7251H4.75C5.00196 13.7251 5.24359 13.8251 5.42175 14.0033C5.59991 14.1815 5.7 14.4231 5.7 14.6751V15.6251ZM5.7 10.4001C5.7 10.652 5.59991 10.8936 5.42175 11.0718C5.24359 11.25 5.00196 11.3501 4.75 11.3501H3.8C3.54805 11.3501 3.30641 11.25 3.12825 11.0718C2.95009 10.8936 2.85 10.652 2.85 10.4001V9.45005C2.85 9.1981 2.95009 8.95646 3.12825 8.7783C3.30641 8.60014 3.54805 8.50005 3.8 8.50005H4.75C5.00196 8.50005 5.24359 8.60014 5.42175 8.7783C5.59991 8.95646 5.7 9.1981 5.7 9.45005V10.4001ZM10.925 15.6251C10.925 15.877 10.8249 16.1186 10.6468 16.2968C10.4686 16.475 10.227 16.5751 9.975 16.5751H9.025C8.77305 16.5751 8.53141 16.475 8.35325 16.2968C8.17509 16.1186 8.075 15.877 8.075 15.6251V14.6751C8.075 14.4231 8.17509 14.1815 8.35325 14.0033C8.53141 13.8251 8.77305 13.7251 9.025 13.7251H9.975C10.227 13.7251 10.4686 13.8251 10.6468 14.0033C10.8249 14.1815 10.925 14.4231 10.925 14.6751V15.6251ZM10.925 10.4001C10.925 10.652 10.8249 10.8936 10.6468 11.0718C10.4686 11.25 10.227 11.3501 9.975 11.3501H9.025C8.77305 11.3501 8.53141 11.25 8.35325 11.0718C8.17509 10.8936 8.075 10.652 8.075 10.4001V9.45005C8.075 9.1981 8.17509 8.95646 8.35325 8.7783C8.53141 8.60014 8.77305 8.50005 9.025 8.50005H9.975C10.227 8.50005 10.4686 8.60014 10.6468 8.7783C10.8249 8.95646 10.925 9.1981 10.925 9.45005V10.4001ZM16.15 15.6251C16.15 15.877 16.0499 16.1186 15.8718 16.2968C15.6936 16.475 15.452 16.5751 15.2 16.5751H14.25C13.9981 16.5751 13.7564 16.475 13.5783 16.2968C13.4001 16.1186 13.3 15.877 13.3 15.6251V14.6751C13.3 14.4231 13.4001 14.1815 13.5783 14.0033C13.7564 13.8251 13.9981 13.7251 14.25 13.7251H15.2C15.452 13.7251 15.6936 13.8251 15.8718 14.0033C16.0499 14.1815 16.15 14.4231 16.15 14.6751V15.6251ZM16.15 10.4001C16.15 10.652 16.0499 10.8936 15.8718 11.0718C15.6936 11.25 15.452 11.3501 15.2 11.3501H14.25C13.9981 11.3501 13.7564 11.25 13.5783 11.0718C13.4001 10.8936 13.3 10.652 13.3 10.4001V9.45005C13.3 9.1981 13.4001 8.95646 13.5783 8.7783C13.7564 8.60014 13.9981 8.50005 14.25 8.50005H15.2C15.452 8.50005 15.6936 8.60014 15.8718 8.7783C16.0499 8.95646 16.15 9.1981 16.15 9.45005V10.4001ZM19 5.17505V2.32505C19 1.82114 18.7998 1.33787 18.4435 0.981546C18.0872 0.625227 17.6039 0.425049 17.1 0.425049H16.625V0.900049C16.625 1.9479 15.7729 2.80005 14.725 2.80005C13.6772 2.80005 12.825 1.9479 12.825 0.900049V0.425049H6.175V0.900049C6.175 1.9479 5.32285 2.80005 4.275 2.80005C3.22715 2.80005 2.375 1.9479 2.375 0.900049V0.425049H1.9C1.39609 0.425049 0.912817 0.625227 0.556497 0.981546C0.200178 1.33787 0 1.82114 0 2.32505V5.17505H19Z" fill="#552F88"/>
</svg>
