<svg width="32" height="32" viewBox="0 0 32 32" fill="none" xmlns="http://www.w3.org/2000/svg">
<g clip-path="url(#clip0_608_383)">
<mask id="mask0_608_383" style="mask-type:luminance" maskUnits="userSpaceOnUse" x="0" y="0" width="32" height="32">
<path d="M0 1.90735e-06H32V32H0V1.90735e-06Z" fill="white"/>
</mask>
<g mask="url(#mask0_608_383)">
<path d="M19.8125 23.5625C19.8125 24.5981 20.652 25.4375 21.6875 25.4375C22.723 25.4375 23.5625 24.5981 23.5625 23.5625C23.5625 22.527 22.723 21.6875 21.6875 21.6875C20.652 21.6875 19.8125 20.8481 19.8125 19.8125C19.8125 18.777 20.652 17.9375 21.6875 17.9375C22.723 17.9375 23.5625 18.7644 23.5625 19.8" stroke="#FFC300" stroke-width="1.875" stroke-miterlimit="10"/>
<path d="M21.6875 15.125V17.9375" stroke="#FFC300" stroke-width="1.875" stroke-miterlimit="10"/>
<path d="M21.6875 25.4376V28.2375" stroke="#FFC300" stroke-width="1.875" stroke-miterlimit="10"/>
<path d="M31.0625 21.6875C31.0625 26.8652 26.8652 31.0625 21.6875 31.0625C16.5098 31.0625 12.3125 26.8652 12.3125 21.6875C12.3125 16.5098 16.5098 12.3125 21.6875 12.3125C26.8652 12.3125 31.0625 16.5098 31.0625 21.6875Z" stroke="#FFC300" stroke-width="1.875" stroke-miterlimit="10"/>
<path d="M19.8125 5.625C19.8125 8.21381 15.6152 10.3125 10.4375 10.3125C5.25981 10.3125 0.9375 8.21381 0.9375 5.625C0.9375 3.03619 5.25981 0.9375 10.4375 0.9375C15.6152 0.9375 19.8125 3.03619 19.8125 5.625Z" stroke="#FFC300" stroke-width="1.875" stroke-miterlimit="10"/>
<path d="M14.5719 15.5832C13.3248 15.8901 11.9214 16.0625 10.4376 16.0625C5.25987 16.0625 0.937561 13.9639 0.937561 11.375" stroke="#FFC300" stroke-width="1.875" stroke-miterlimit="10"/>
<path d="M0.9375 5.625V22.625C0.9375 25.2138 5.25981 27.3125 10.4375 27.3125C11.6772 27.3125 12.8607 27.1922 13.9439 26.9736" stroke="#FFC300" stroke-width="1.875" stroke-miterlimit="10"/>
<path d="M19.8125 5.625V12.5001" stroke="#FFC300" stroke-width="1.875" stroke-miterlimit="10"/>
<path d="M12.313 21.5937C11.707 21.6552 11.0798 21.6875 10.4375 21.6875C5.25981 21.6875 0.9375 19.5888 0.9375 17" stroke="#FFC300" stroke-width="1.875" stroke-miterlimit="10"/>
</g>
</g>
<defs>
<clipPath id="clip0_608_383">
<rect width="32" height="32" fill="white"/>
</clipPath>
</defs>
</svg>
