<svg width="100" height="100" viewBox="0 0 100 100" fill="none" xmlns="http://www.w3.org/2000/svg">
<rect width="100" height="100" rx="50" fill="white"/>
<path d="M56.9616 32.1836L26.7033 62.4476C26.551 62.6003 26.4411 62.7931 26.3888 63.0004L23.0349 76.4636C22.9346 76.8688 23.0537 77.2998 23.3494 77.5956C23.5732 77.8194 23.8781 77.9433 24.19 77.9433C24.2855 77.9433 24.3832 77.9315 24.4783 77.9075L37.9399 74.5528C38.1497 74.5005 38.3403 74.391 38.4926 74.2387L68.7535 43.9769L56.9616 32.1836Z" fill="#351C42"/>
<path d="M76.2533 28.0564L72.8851 24.6878C70.6339 22.4363 66.7104 22.4385 64.4618 24.6878L60.3359 28.8141L72.1274 40.607L76.2533 36.4806C77.3778 35.3564 77.9972 33.8601 77.9972 32.2687C77.9972 30.6773 77.3778 29.181 76.2533 28.0564Z" fill="#351C42"/>
</svg>
