<svg width="20" height="20" viewBox="0 0 20 20" fill="none" xmlns="http://www.w3.org/2000/svg">
<g clip-path="url(#clip0_667_2139)">
<path d="M14.1654 20.0002C11.337 20.0002 8.33203 19.1235 8.33203 17.5002C8.33203 17.2702 8.5187 17.0835 8.7487 17.0835C8.9787 17.0835 9.16536 17.2702 9.16536 17.5002C9.16536 18.196 11.067 19.1668 14.1654 19.1668C17.2637 19.1668 19.1654 18.196 19.1654 17.5002C19.1654 17.2702 19.352 17.0835 19.582 17.0835C19.812 17.0835 19.9987 17.2702 19.9987 17.5002C19.9987 19.1235 16.9937 20.0002 14.1654 20.0002Z" fill="black"/>
<path d="M14.1654 17.5002C11.337 17.5002 8.33203 16.6235 8.33203 15.0002C8.33203 14.7702 8.5187 14.5835 8.7487 14.5835C8.9787 14.5835 9.16536 14.7702 9.16536 15.0002C9.16536 15.696 11.067 16.6668 14.1654 16.6668C17.2637 16.6668 19.1654 15.696 19.1654 15.0002C19.1654 14.7702 19.352 14.5835 19.582 14.5835C19.812 14.5835 19.9987 14.7702 19.9987 15.0002C19.9987 16.6235 16.9937 17.5002 14.1654 17.5002Z" fill="black"/>
<path d="M14.1654 15C11.337 15 8.33203 14.1233 8.33203 12.5C8.33203 10.8767 11.337 10 14.1654 10C16.9937 10 19.9987 10.8767 19.9987 12.5C19.9987 14.1233 16.9937 15 14.1654 15ZM14.1654 10.8333C11.067 10.8333 9.16536 11.8042 9.16536 12.5C9.16536 13.1958 11.067 14.1667 14.1654 14.1667C17.2637 14.1667 19.1654 13.1958 19.1654 12.5C19.1654 11.8042 17.2637 10.8333 14.1654 10.8333Z" fill="black"/>
<path d="M19.5846 17.9168C19.3546 17.9168 19.168 17.7302 19.168 17.5002V12.5002C19.168 12.2702 19.3546 12.0835 19.5846 12.0835C19.8146 12.0835 20.0013 12.2702 20.0013 12.5002V17.5002C20.0013 17.7302 19.8146 17.9168 19.5846 17.9168Z" fill="black"/>
<path d="M8.7487 17.9168C8.5187 17.9168 8.33203 17.7302 8.33203 17.5002V12.5002C8.33203 12.2702 8.5187 12.0835 8.7487 12.0835C8.9787 12.0835 9.16536 12.2702 9.16536 12.5002V17.5002C9.16536 17.7302 8.9787 17.9168 8.7487 17.9168Z" fill="black"/>
<path d="M5.83333 10.0002C3.005 10.0002 0 9.1235 0 7.50016C0 7.27016 0.186667 7.0835 0.416667 7.0835C0.646667 7.0835 0.833333 7.27016 0.833333 7.50016C0.833333 8.196 2.735 9.16683 5.83333 9.16683C8.93167 9.16683 10.8333 8.196 10.8333 7.50016C10.8333 7.27016 11.02 7.0835 11.25 7.0835C11.48 7.0835 11.6667 7.27016 11.6667 7.50016C11.6667 9.1235 8.66167 10.0002 5.83333 10.0002Z" fill="black"/>
<path d="M5.83333 7.50016C3.005 7.50016 0 6.6235 0 5.00016C0 4.77016 0.186667 4.5835 0.416667 4.5835C0.646667 4.5835 0.833333 4.77016 0.833333 5.00016C0.833333 5.696 2.735 6.66683 5.83333 6.66683C8.93167 6.66683 10.8333 5.696 10.8333 5.00016C10.8333 4.77016 11.02 4.5835 11.25 4.5835C11.48 4.5835 11.6667 4.77016 11.6667 5.00016C11.6667 6.6235 8.66167 7.50016 5.83333 7.50016Z" fill="black"/>
<path d="M5.83333 15.0002C3.005 15.0002 0 14.1235 0 12.5002C0 12.2702 0.186667 12.0835 0.416667 12.0835C0.646667 12.0835 0.833333 12.2702 0.833333 12.5002C0.833333 13.196 2.735 14.1668 5.83333 14.1668C6.28667 14.1668 6.68167 14.1485 7.03917 14.111C7.265 14.086 7.47333 14.2527 7.4975 14.481C7.52167 14.7093 7.35583 14.9152 7.1275 14.9393C6.73917 14.981 6.31583 15.0002 5.83333 15.0002Z" fill="black"/>
<path d="M5.83333 17.5002C3.005 17.5002 0 16.6235 0 15.0002C0 14.7702 0.186667 14.5835 0.416667 14.5835C0.646667 14.5835 0.833333 14.7702 0.833333 15.0002C0.833333 15.696 2.735 16.6668 5.83333 16.6668C6.28667 16.6668 6.68167 16.6485 7.03917 16.611C7.265 16.5818 7.47333 16.7527 7.4975 16.981C7.52167 17.2093 7.35583 17.4152 7.1275 17.4393C6.73917 17.481 6.31583 17.5002 5.83333 17.5002Z" fill="black"/>
<path d="M5.83333 12.5002C3.005 12.5002 0 11.6235 0 10.0002C0 9.77016 0.186667 9.5835 0.416667 9.5835C0.646667 9.5835 0.833333 9.77016 0.833333 10.0002C0.833333 10.696 2.735 11.6668 5.83333 11.6668C6.28667 11.6668 6.68167 11.6485 7.03917 11.611C7.265 11.5843 7.47333 11.7518 7.4975 11.981C7.52167 12.2093 7.35583 12.4152 7.1275 12.4393C6.73917 12.481 6.31583 12.5002 5.83333 12.5002Z" fill="black"/>
<path d="M5.83333 5C3.005 5 0 4.12333 0 2.5C0 0.876667 3.005 0 5.83333 0C8.66167 0 11.6667 0.876667 11.6667 2.5C11.6667 4.12333 8.66167 5 5.83333 5ZM5.83333 0.833333C2.735 0.833333 0.833333 1.80417 0.833333 2.5C0.833333 3.19583 2.735 4.16667 5.83333 4.16667C8.93167 4.16667 10.8333 3.19583 10.8333 2.5C10.8333 1.80417 8.93167 0.833333 5.83333 0.833333Z" fill="black"/>
<path d="M0.416667 15.4168C0.186667 15.4168 0 15.2302 0 15.0002V2.50016C0 2.27016 0.186667 2.0835 0.416667 2.0835C0.646667 2.0835 0.833333 2.27016 0.833333 2.50016V15.0002C0.833333 15.2302 0.646667 15.4168 0.416667 15.4168Z" fill="black"/>
<path d="M11.2487 7.91683C11.0187 7.91683 10.832 7.73016 10.832 7.50016V2.50016C10.832 2.27016 11.0187 2.0835 11.2487 2.0835C11.4787 2.0835 11.6654 2.27016 11.6654 2.50016V7.50016C11.6654 7.73016 11.4787 7.91683 11.2487 7.91683Z" fill="black"/>
</g>
<defs>
<clipPath id="clip0_667_2139">
<rect width="20" height="20" fill="white"/>
</clipPath>
</defs>
</svg>
