<svg width="120" height="27" viewBox="0 0 120 27" fill="none" xmlns="http://www.w3.org/2000/svg">
<path d="M12.7509 12.3222L12.7801 12.345H12.8174H15.9239C17.6039 12.345 19.2151 13.006 20.4031 14.1825C21.5657 15.334 22.2298 16.8868 22.2575 18.5121H12.3436H12.2361L12.2362 18.6186L12.2377 20.0364L12.2378 20.1426H12.3451H23.7973H23.9047V20.0363V18.6185C23.9003 17.1542 23.491 15.72 22.7229 14.4716H26.6605C27.9934 14.4713 29.2991 14.8452 30.4261 15.5498C31.5348 16.243 32.426 17.2283 33 18.3948C29.6314 22.7639 24.2002 25.6008 18.0712 25.6008C14.1613 25.6008 10.8498 24.7791 8.15773 23.34V10.3363C9.83516 10.5955 11.4174 11.2793 12.7509 12.3222ZM5.18726 8.80078C5.51159 8.80078 5.82464 8.9187 6.06701 9.13221C6.30862 9.34497 6.46326 9.63791 6.50182 9.95573L6.51146 10.1153V22.8716C6.51146 23.2194 6.37195 23.553 6.12361 23.7989C5.87528 24.0449 5.53848 24.1831 5.18727 24.1831H2.32419C1.97299 24.1831 1.63618 24.0449 1.38785 23.7989C1.13951 23.553 1 23.2194 1 22.8716V10.1121C1 9.76433 1.13951 9.43078 1.38785 9.18484C1.63618 8.9389 1.97299 8.80078 2.32419 8.80078H5.18726Z" fill="#552F88" stroke="white" stroke-width="0.2"/>
<path d="M19.4004 1.5023L18.911 1.01536C18.5906 0.694599 18.2096 0.439789 17.7896 0.26555C17.3697 0.0913004 16.9193 0.00106887 16.4642 9.25869e-06C16.0091 -0.00104006 15.5582 0.0871134 15.1375 0.259418C14.7168 0.431713 14.3345 0.684765 14.0127 1.00404C13.6907 1.32332 13.4357 1.70253 13.2619 2.1199C13.0881 2.53728 12.9991 2.9846 13 3.43618C13.0009 3.88777 13.0918 4.33473 13.2673 4.7514C13.4428 5.16806 13.6995 5.54623 14.0227 5.86419L19.4004 11.2L24.7767 5.86694C25.1 5.54907 25.3567 5.17097 25.5324 4.75435C25.708 4.33774 25.799 3.8908 25.8 3.43922C25.8011 2.98763 25.7123 2.54029 25.5386 2.12286C25.3649 1.70544 25.1099 1.32615 24.7881 1.00678C24.4663 0.687419 24.0841 0.434264 23.6635 0.261846C23.2429 0.089428 22.7919 0.00115128 22.3369 0.00207715C21.8817 0.00299274 21.4313 0.0931109 21.0113 0.267237C20.5914 0.441352 20.2102 0.69607 19.8897 1.01673L19.4004 1.5023Z" fill="#FFC300"/>
<path d="M50.3839 21.5543C48.4319 21.5543 46.7919 21.1303 45.4639 20.2823C44.1359 19.4183 43.1439 18.2663 42.4879 16.8263C41.8319 15.3863 41.5039 13.7943 41.5039 12.0503C41.5039 10.3063 41.8319 8.72231 42.4879 7.29831C43.1439 5.85831 44.1359 4.71431 45.4639 3.86631C46.7919 3.00231 48.4319 2.57031 50.3839 2.57031C52.5919 2.57031 54.3759 3.12231 55.7359 4.22631C57.0959 5.33031 57.9039 6.80231 58.1599 8.64231H54.3919C54.2319 7.68231 53.7839 6.94631 53.0479 6.43431C52.3119 5.92231 51.3919 5.66631 50.2879 5.66631C48.6399 5.66631 47.3599 6.25031 46.4479 7.41831C45.5519 8.57031 45.1039 10.1143 45.1039 12.0503C45.1039 14.0023 45.5519 15.5623 46.4479 16.7303C47.3599 17.8823 48.6399 18.4583 50.2879 18.4583C51.4079 18.4583 52.3279 18.1943 53.0479 17.6663C53.7679 17.1223 54.2159 16.3223 54.3919 15.2663H58.1599C57.9039 17.2023 57.0959 18.7383 55.7359 19.8743C54.3919 20.9943 52.6079 21.5543 50.3839 21.5543ZM59.4943 21.2183V2.90631H62.7343V9.45831C63.2623 8.72231 63.8143 8.21031 64.3903 7.92231C64.9663 7.61831 65.6303 7.46631 66.3823 7.46631C68.4943 7.46631 69.8943 8.21831 70.5823 9.72231C70.8383 10.2503 70.9983 10.7863 71.0623 11.3303C71.1263 11.8743 71.1583 12.5863 71.1583 13.4663V21.2183H67.9183V13.4183C67.9183 12.7303 67.8623 12.1783 67.7503 11.7623C67.6543 11.3303 67.4943 10.9863 67.2703 10.7303C66.8863 10.3303 66.3183 10.1303 65.5663 10.1303C64.6383 10.1303 63.9503 10.4023 63.5023 10.9463C63.2303 11.2663 63.0303 11.6903 62.9023 12.2183C62.7903 12.7463 62.7343 13.4583 62.7343 14.3543V21.2183H59.4943ZM76.9296 21.4823C75.6176 21.4823 74.5536 21.1383 73.7376 20.4503C72.9216 19.7463 72.5136 18.7703 72.5136 17.5223C72.5136 16.1783 73.0256 15.1543 74.0496 14.4503C74.7856 13.9383 75.8336 13.5543 77.1936 13.2983L81.2016 12.5543C81.1696 11.7223 80.9536 11.0903 80.5536 10.6583C80.1536 10.2263 79.5536 10.0103 78.7536 10.0103C78.1296 10.0103 77.5776 10.1943 77.0976 10.5623C76.6336 10.9303 76.3456 11.4263 76.2336 12.0503H73.0176C73.2416 10.5623 73.8976 9.42631 74.9856 8.64231C76.0736 7.85831 77.3376 7.46631 78.7776 7.46631C79.5936 7.46631 80.3536 7.58631 81.0576 7.82631C81.7616 8.05031 82.3616 8.38631 82.8576 8.83431C83.3536 9.26631 83.7136 9.77031 83.9376 10.3463C84.1616 10.9223 84.2976 11.4983 84.3456 12.0743C84.4096 12.6503 84.4416 13.3623 84.4416 14.2103V21.2183H81.2016V19.3943C80.8656 19.9863 80.4576 20.4343 79.9776 20.7383C79.2256 21.2343 78.2096 21.4823 76.9296 21.4823ZM77.7216 18.9383C78.3616 18.9383 78.9376 18.8103 79.4496 18.5543C80.1216 18.2183 80.5856 17.7703 80.8416 17.2103C81.0976 16.6503 81.2416 15.8903 81.2736 14.9303L78.0576 15.5783C77.1936 15.7383 76.5696 15.9943 76.1856 16.3463C75.8976 16.6343 75.7536 16.9863 75.7536 17.4023C75.7536 17.8983 75.9296 18.2823 76.2816 18.5543C76.6496 18.8103 77.1296 18.9383 77.7216 18.9383ZM86.2613 21.2183V7.75431H89.5013V9.36231C89.9973 8.67431 90.5493 8.18631 91.1573 7.89831C91.7813 7.61031 92.5093 7.46631 93.3413 7.46631H93.7253V10.5863H92.9813C91.9573 10.5863 91.1573 10.8583 90.5813 11.4023C90.2133 11.7703 89.9413 12.2423 89.7653 12.8183C89.5893 13.3783 89.5013 14.0983 89.5013 14.9783V21.2183H86.2613ZM97.9159 21.2183H94.6763V7.75431H97.9159V21.2183ZM96.3083 6.26631C95.7483 6.26631 95.2763 6.09831 94.8923 5.76231C94.5083 5.42631 94.3163 4.97831 94.3163 4.41831C94.3163 3.89031 94.5083 3.45031 94.8923 3.09831C95.2763 2.74631 95.7483 2.57031 96.3083 2.57031C96.8519 2.57031 97.3159 2.74631 97.6999 3.09831C98.0999 3.45031 98.2999 3.89031 98.2999 4.41831C98.2999 4.96231 98.1079 5.41031 97.7239 5.76231C97.3399 6.09831 96.8679 6.26631 96.3083 6.26631ZM104.128 21.2183C102.032 21.2183 100.984 20.2343 100.984 18.2663V10.3463H98.9919V7.75431H100.984V2.90631H104.224V7.75431H106.816V10.3463H104.224V17.2823C104.224 17.6983 104.288 18.0103 104.416 18.2183C104.56 18.4263 104.864 18.5303 105.328 18.5303H106.792V21.2183H104.128ZM108.347 26.0663V23.3303H109.811C110.291 23.3303 110.651 23.2583 110.891 23.1143C111.147 22.9863 111.363 22.6903 111.539 22.2263L111.899 21.2663L106.931 7.75431H110.435L113.579 17.6423L116.411 7.75431H119.891L114.659 22.8023C114.243 24.0023 113.731 24.8423 113.123 25.3223C112.531 25.8183 111.683 26.0663 110.579 26.0663H108.347Z" fill="#552F88"/>
</svg>
