<svg width="33" height="33" viewBox="0 0 33 33" fill="none" xmlns="http://www.w3.org/2000/svg">
<g clip-path="url(#clip0_608_303)">
<mask id="mask0_608_303" style="mask-type:luminance" maskUnits="userSpaceOnUse" x="0" y="0" width="33" height="33">
<path d="M0.666626 0.66663H32.6666V32.6666H0.666626V0.66663Z" fill="white"/>
</mask>
<g mask="url(#mask0_608_303)">
<path d="M31.729 21.6664H26.729V6.66644C26.729 3.90501 28.9676 1.66645 31.729 1.66645V21.6664Z" stroke="#FFC300" stroke-width="1.875" stroke-miterlimit="10" stroke-linecap="round" stroke-linejoin="round"/>
<path d="M31.7291 21.6667H27.9791V29.7917C27.9791 30.8272 28.8186 31.6667 29.8541 31.6667C30.8896 31.6667 31.7291 30.8272 31.7291 29.7917V21.6667Z" stroke="#FFC300" stroke-width="1.875" stroke-miterlimit="10" stroke-linecap="round" stroke-linejoin="round"/>
<path d="M7.22913 12.2917H3.47913V29.7917C3.47913 30.8272 4.31863 31.6667 5.35413 31.6667C6.38963 31.6667 7.22913 30.8272 7.22913 29.7917V12.2917Z" stroke="#FFC300" stroke-width="1.875" stroke-miterlimit="10" stroke-linecap="round" stroke-linejoin="round"/>
<path d="M9.104 1.66644V8.54144H1.604V1.66644" stroke="#FFC300" stroke-width="1.875" stroke-miterlimit="10" stroke-linecap="round" stroke-linejoin="round"/>
<path d="M5.354 8.54144V1.66644" stroke="#FFC300" stroke-width="1.875" stroke-miterlimit="10" stroke-linecap="round" stroke-linejoin="round"/>
<path d="M7.229 12.2914H3.479C2.4435 12.2914 1.604 11.4519 1.604 10.4164V8.54144H9.104V10.4164C9.104 11.4519 8.2645 12.2914 7.229 12.2914Z" stroke="#FFC300" stroke-width="1.875" stroke-miterlimit="10" stroke-linecap="round" stroke-linejoin="round"/>
<path d="M16.6663 13.9621L15.9838 13.2796C14.8532 12.1489 13.02 12.1489 11.8893 13.2796C10.7586 14.4103 10.7586 16.2435 11.8893 17.3742L16.6663 22.1512L21.4433 17.3742C22.5739 16.2435 22.5739 14.4103 21.4433 13.2796C20.3126 12.1489 18.4794 12.1489 17.3487 13.2796L16.6663 13.9621Z" stroke="#FFC300" stroke-width="1.875" stroke-miterlimit="10" stroke-linecap="round" stroke-linejoin="round"/>
<path d="M7.22913 25.7869C9.61563 28.2559 12.9616 29.7917 16.6666 29.7917C21.4852 29.7917 25.6965 27.1945 27.9791 23.3242" stroke="#FFC300" stroke-width="1.875" stroke-miterlimit="10" stroke-linecap="round" stroke-linejoin="round"/>
<path d="M26.7291 8.24066C24.3215 5.36847 20.7076 3.54172 16.6666 3.54172C13.8505 3.54172 11.2419 4.42897 9.10413 5.93866" stroke="#FFC300" stroke-width="1.875" stroke-miterlimit="10" stroke-linecap="round" stroke-linejoin="round"/>
</g>
</g>
<defs>
<clipPath id="clip0_608_303">
<rect width="32" height="32" fill="white" transform="translate(0.666748 0.666748)"/>
</clipPath>
</defs>
</svg>
