<svg width="52" height="22" viewBox="0 0 52 22" fill="none" xmlns="http://www.w3.org/2000/svg">
<rect width="52" height="22" rx="11" fill="#12B368" fill-opacity="0.2"/>
<circle cx="10" cy="11" r="3" fill="#12B368"/>
<path d="M24.5616 12.904H22.3656V16H21.1896V7.324H24.5616C26.2656 7.324 27.3576 8.44 27.3576 10.108C27.3576 11.728 26.2536 12.904 24.5616 12.904ZM24.3576 8.38H22.3656V11.848H24.3096C25.4736 11.848 26.1216 11.164 26.1216 10.096C26.1216 9.004 25.4616 8.38 24.3576 8.38ZM29.9793 16.144C28.7193 16.144 27.9753 15.436 27.9753 14.368C27.9753 13.288 28.7793 12.616 30.1593 12.508L32.0073 12.364V12.196C32.0073 11.212 31.4193 10.864 30.6273 10.864C29.6793 10.864 29.1393 11.284 29.1393 11.992H28.1553C28.1553 10.768 29.1633 9.964 30.6753 9.964C32.1273 9.964 33.1113 10.732 33.1113 12.316V16H32.1513L32.0313 15.052C31.7313 15.724 30.9273 16.144 29.9793 16.144ZM30.3033 15.268C31.3713 15.268 32.0193 14.572 32.0193 13.468V13.156L30.5193 13.276C29.5233 13.372 29.1153 13.756 29.1153 14.332C29.1153 14.956 29.5713 15.268 30.3033 15.268ZM35.2254 8.74C34.8174 8.74 34.4814 8.404 34.4814 7.996C34.4814 7.576 34.8174 7.252 35.2254 7.252C35.6334 7.252 35.9694 7.576 35.9694 7.996C35.9694 8.404 35.6334 8.74 35.2254 8.74ZM34.6734 16V10.132H35.8014V16H34.6734ZM39.791 16.144C38.087 16.144 37.055 14.872 37.055 13.084C37.055 11.284 38.099 9.964 39.839 9.964C40.739 9.964 41.495 10.36 41.891 11.08V7.168H43.007V16H41.999L41.903 14.932C41.519 15.736 40.727 16.144 39.791 16.144ZM40.019 15.124C41.171 15.124 41.879 14.272 41.879 13.048C41.879 11.848 41.171 10.984 40.019 10.984C38.867 10.984 38.195 11.848 38.195 13.048C38.195 14.26 38.867 15.124 40.019 15.124Z" fill="#12B368"/>
</svg>
