<svg width="20" height="20" viewBox="0 0 20 20" fill="none" xmlns="http://www.w3.org/2000/svg">
<g clip-path="url(#clip0_667_2153)">
<path d="M19.7064 19.4129H17.8082V7.8082C17.8082 7.64609 17.6768 7.51465 17.5146 7.51465H14.3836C14.2214 7.51465 14.09 7.64609 14.09 7.8082V19.4129H11.8591V11.2524C11.8591 11.0903 11.7277 10.9589 11.5655 10.9589H8.43445C8.2723 10.9589 8.1409 11.0903 8.1409 11.2524V19.4129H5.91V12.818C5.91 12.6559 5.77859 12.5244 5.61645 12.5244H2.48535C2.3232 12.5244 2.1918 12.6559 2.1918 12.818V19.4129H0.293555C0.131406 19.4129 0 19.5443 0 19.7064C0 19.8685 0.131406 20 0.293555 20H19.7064C19.8686 20 20 19.8685 20 19.7064C20 19.5443 19.8686 19.4129 19.7064 19.4129ZM5.32289 19.4129H2.77887V13.1115H5.32289V19.4129ZM11.272 19.4129H8.72801V11.546H11.272V19.4129ZM17.2211 19.4129H14.6771V8.10176H17.2211V19.4129Z" fill="black"/>
<path d="M19.0621 0.23029C18.8643 0.0556414 18.601 -0.0257258 18.3393 0.00716482L15.8344 0.32029C15.3371 0.382438 14.9736 0.849196 15.0358 1.34697C15.0987 1.84998 15.5589 2.20845 16.0625 2.14556L16.2669 2.12006C13.1925 5.68474 9.53753 7.52701 6.9548 8.45287C3.73445 9.60736 1.22793 9.70611 1.20351 9.70693C0.697145 9.72275 0.297613 10.1476 0.312926 10.6541C0.328082 11.1542 0.731715 11.546 1.23191 11.546C1.24121 11.546 1.25054 11.5459 1.26011 11.5456C1.37156 11.5422 4.02863 11.4484 7.52921 10.201C9.49711 9.49978 11.3488 8.56888 13.0328 7.43423C13.1673 7.34369 13.2028 7.16119 13.1122 7.02677C13.0217 6.89228 12.8393 6.85677 12.7048 6.94736C11.0615 8.05463 9.25386 8.96326 7.33214 9.64802C3.91757 10.8647 1.34992 10.9555 1.24254 10.9587L1.23191 10.9589C1.05113 10.9589 0.905191 10.8172 0.899723 10.6363C0.894176 10.4531 1.03871 10.2994 1.22199 10.2937C1.24761 10.2929 3.82566 10.1983 7.15293 9.00548C9.94039 8.00623 13.9456 5.96588 17.1969 1.92041C17.3588 1.719 17.1877 1.41318 16.9318 1.44525L15.9899 1.56299C15.8266 1.58318 15.668 1.47619 15.6266 1.31674C15.5767 1.12486 15.7108 0.92736 15.9073 0.902751L18.4122 0.589626C18.6078 0.564899 18.7861 0.722985 18.7861 0.919743V3.42463C18.7861 3.60806 18.6369 3.75732 18.4534 3.75732C18.2699 3.75732 18.1207 3.6081 18.1207 3.42463V2.66525C18.1207 2.54529 18.0431 2.4331 17.9309 2.39072C17.815 2.34693 17.6781 2.38369 17.5997 2.47963C16.5034 3.82302 15.255 5.03865 13.8893 6.09271C13.7609 6.19177 13.7371 6.37611 13.8362 6.50447C13.9353 6.63283 14.1197 6.65654 14.248 6.55752C15.4376 5.63935 16.5403 4.60181 17.5346 3.46607C17.5563 3.95408 17.9601 4.34447 18.4534 4.34447C18.9606 4.34447 19.3732 3.93185 19.3732 3.4247V0.919821C19.3732 0.656149 19.2598 0.404782 19.0621 0.23029Z" fill="black"/>
</g>
<defs>
<clipPath id="clip0_667_2153">
<rect width="20" height="20" fill="white"/>
</clipPath>
</defs>
</svg>
