<svg width="32" height="32" viewBox="0 0 32 32" fill="none" xmlns="http://www.w3.org/2000/svg">
<path d="M28 14.3334H20C19.3814 14.3326 18.7883 14.0865 18.3509 13.6491C17.9135 13.2117 17.6674 12.6186 17.6667 12V4.00002C17.6674 3.38141 17.9135 2.78836 18.3509 2.35093C18.7883 1.91351 19.3814 1.66744 20 1.66669H28C28.6186 1.66744 29.2117 1.91351 29.6491 2.35093C30.0865 2.78836 30.3326 3.38141 30.3333 4.00002V12C30.3326 12.6186 30.0865 13.2117 29.6491 13.6491C29.2117 14.0865 28.6186 14.3326 28 14.3334ZM20 3.66669C19.9117 3.66686 19.827 3.70203 19.7645 3.76451C19.702 3.82698 19.6668 3.91167 19.6667 4.00002V12C19.6668 12.0884 19.702 12.1731 19.7645 12.2355C19.827 12.298 19.9117 12.3332 20 12.3334H28C28.0884 12.3332 28.173 12.298 28.2355 12.2355C28.298 12.1731 28.3332 12.0884 28.3333 12V4.00002C28.3332 3.91167 28.298 3.82698 28.2355 3.76451C28.173 3.70203 28.0884 3.66686 28 3.66669H20Z" fill="#552F88" stroke="#552F88" stroke-width="0.3"/>
<path d="M24 30.9935C23.6936 30.9942 23.3901 30.9342 23.107 30.8171C22.8239 30.7 22.5667 30.5281 22.3503 30.3112L17.6888 25.6498C17.252 25.2119 17.0067 24.6186 17.0067 24C17.0067 23.3815 17.252 22.7882 17.6888 22.3503L22.3503 17.6888C22.788 17.2517 23.3814 17.0062 24 17.0062C24.6186 17.0062 25.212 17.2517 25.6497 17.6888L30.3112 22.3503C30.7483 22.7881 30.9938 23.3814 30.9938 24C30.9938 24.6187 30.7483 25.212 30.3112 25.6498L25.6497 30.3112C25.4333 30.5281 25.1761 30.7 24.893 30.8171C24.6099 30.9342 24.3064 30.9942 24 30.9935ZM24 19.0053C23.9562 19.0051 23.9128 19.0137 23.8724 19.0305C23.8319 19.0472 23.7952 19.0719 23.7643 19.1029L19.1029 23.7644C19.0719 23.7953 19.0473 23.832 19.0306 23.8725C19.0138 23.9129 19.0052 23.9563 19.0052 24C19.0052 24.0438 19.0138 24.0872 19.0306 24.1276C19.0473 24.168 19.0719 24.2048 19.1029 24.2357L23.7643 28.8972C23.7953 28.9281 23.832 28.9527 23.8724 28.9695C23.9129 28.9862 23.9562 28.9948 24 28.9948C24.0438 28.9948 24.0871 28.9862 24.1276 28.9695C24.168 28.9527 24.2047 28.9281 24.2357 28.8972L28.8971 24.2357C28.9281 24.2048 28.9527 24.168 28.9694 24.1276C28.9862 24.0872 28.9948 24.0438 28.9948 24C28.9948 23.9563 28.9862 23.9129 28.9694 23.8725C28.9527 23.832 28.9281 23.7953 28.8971 23.7644L24.2357 19.1029C24.2048 19.0719 24.1681 19.0472 24.1276 19.0305C24.0872 19.0137 24.0438 19.0051 24 19.0053Z" fill="#552F88" stroke="#552F88" stroke-width="0.3"/>
<path d="M12 14.3334H4.00001C3.3814 14.3326 2.78834 14.0865 2.35092 13.6491C1.9135 13.2117 1.66742 12.6186 1.66667 12V4.00002C1.66742 3.38141 1.9135 2.78836 2.35092 2.35093C2.78834 1.91351 3.3814 1.66744 4.00001 1.66669H12C12.6186 1.66744 13.2117 1.91351 13.6491 2.35093C14.0865 2.78836 14.3326 3.38141 14.3333 4.00002V12C14.3326 12.6186 14.0865 13.2117 13.6491 13.6491C13.2117 14.0865 12.6186 14.3326 12 14.3334ZM4.00001 3.66669C3.91165 3.66686 3.82697 3.70203 3.76449 3.76451C3.70201 3.82698 3.66684 3.91167 3.66667 4.00002V12C3.66684 12.0884 3.70201 12.1731 3.76449 12.2355C3.82697 12.298 3.91165 12.3332 4.00001 12.3334H12C12.0884 12.3332 12.173 12.298 12.2355 12.2355C12.298 12.1731 12.3332 12.0884 12.3333 12V4.00002C12.3332 3.91167 12.298 3.82698 12.2355 3.76451C12.173 3.70203 12.0884 3.66686 12 3.66669H4.00001Z" fill="#552F88" stroke="#552F88" stroke-width="0.3"/>
<path d="M12 30.3334H4.00001C3.3814 30.3326 2.78834 30.0865 2.35092 29.6491C1.9135 29.2117 1.66742 28.6186 1.66667 28V20C1.66742 19.3814 1.9135 18.7884 2.35092 18.3509C2.78834 17.9135 3.3814 17.6674 4.00001 17.6667H12C12.6186 17.6674 13.2117 17.9135 13.6491 18.3509C14.0865 18.7884 14.3326 19.3814 14.3333 20V28C14.3326 28.6186 14.0865 29.2117 13.6491 29.6491C13.2117 30.0865 12.6186 30.3326 12 30.3334ZM4.00001 19.6667C3.91165 19.6669 3.82697 19.702 3.76449 19.7645C3.70201 19.827 3.66684 19.9117 3.66667 20V28C3.66684 28.0884 3.70201 28.1731 3.76449 28.2355C3.82697 28.298 3.91165 28.3332 4.00001 28.3334H12C12.0884 28.3332 12.173 28.298 12.2355 28.2355C12.298 28.1731 12.3332 28.0884 12.3333 28V20C12.3332 19.9117 12.298 19.827 12.2355 19.7645C12.173 19.702 12.0884 19.6669 12 19.6667H4.00001Z" fill="#552F88" stroke="#552F88" stroke-width="0.3"/>
</svg>
