<svg width="32" height="32" viewBox="0 0 32 32" fill="none" xmlns="http://www.w3.org/2000/svg">
<g clip-path="url(#clip0_608_413)">
<path d="M13.2128 7.47475C12.5989 7.19018 11.9149 7.03137 11.1939 7.03137C8.53951 7.03137 6.3877 9.18318 6.3877 11.8376V12.6799H11.4065" stroke="#FFC300" stroke-width="1.875" stroke-miterlimit="10"/>
<path d="M12.9535 6.47225C12.4565 6.82444 11.8493 7.03144 11.1938 7.03144C9.51098 7.03144 8.14685 5.66725 8.14685 3.9845C8.14685 2.30175 9.51104 0.9375 11.1938 0.9375C12.8003 0.9375 14.1165 2.18081 14.2324 3.75775" stroke="#FFC300" stroke-width="1.875" stroke-miterlimit="10"/>
<path d="M18.7872 7.47481C19.401 7.19025 20.085 7.03143 20.8062 7.03143C23.4605 7.03143 25.6124 9.18325 25.6124 11.8376V12.6799H20.5936" stroke="#FFC300" stroke-width="1.875" stroke-miterlimit="10"/>
<path d="M19.0465 6.47225C19.5435 6.82444 20.1507 7.03144 20.8062 7.03144C22.489 7.03144 23.8531 5.66725 23.8531 3.9845C23.8531 2.30175 22.489 0.9375 20.8062 0.9375C19.1979 0.9375 17.8806 2.18362 17.7672 3.76306" stroke="#FFC300" stroke-width="1.875" stroke-miterlimit="10"/>
<path d="M16 9.29132C13.3456 9.29132 11.1938 11.4431 11.1938 14.0975V14.9398H20.8061V14.0975C20.8062 11.4431 18.6543 9.29132 16 9.29132Z" stroke="#FFC300" stroke-width="1.875" stroke-miterlimit="10"/>
<path d="M16 9.29132C17.6828 9.29132 19.0469 7.92716 19.0469 6.24439C19.0469 4.56161 17.6828 3.19745 16 3.19745C14.3172 3.19745 12.9531 4.56161 12.9531 6.24439C12.9531 7.92716 14.3172 9.29132 16 9.29132Z" stroke="#FFC300" stroke-width="1.875" stroke-miterlimit="10"/>
<path d="M5.40244 18.7588H0.9375V31.0625H5.40244V18.7588Z" stroke="#FFC300" stroke-width="1.875" stroke-miterlimit="10"/>
<path d="M16.9621 18.7588H5.40247V28.4194L14.3102 30.0293C15.9775 30.3307 17.6954 29.9314 19.0589 28.9254L30.2068 20.7014C31.1426 20.011 31.3415 18.6929 30.6512 17.7571C29.9609 16.8214 28.6427 16.6224 27.7069 17.3127L21.2534 22.0737" stroke="#FFC300" stroke-width="1.875" stroke-miterlimit="10"/>
<path d="M12.3629 18.7588H19.5293C20.6788 18.7588 21.6106 19.6906 21.6106 20.8401C21.6106 21.9896 20.6788 22.9214 19.5293 22.9214H12.7097" stroke="#FFC300" stroke-width="1.875" stroke-miterlimit="10"/>
</g>
<defs>
<clipPath id="clip0_608_413">
<rect width="32" height="32" fill="white"/>
</clipPath>
</defs>
</svg>
