<svg width="20" height="14" viewBox="0 0 20 14" fill="none" xmlns="http://www.w3.org/2000/svg">
<g clip-path="url(#clip0_6_283)">
<path d="M6.46471 7.66666C8.35232 7.66666 9.88253 6.17428 9.88253 4.33333C9.88253 2.49238 8.35232 1 6.46471 1C4.57709 1 3.04688 2.49238 3.04688 4.33333C3.04688 6.17428 4.57709 7.66666 6.46471 7.66666Z" stroke="#351C42" stroke-width="1.5"/>
<path d="M11.937 12.9974C11.937 10.0519 9.4887 7.66406 6.46852 7.66406C3.44834 7.66406 1 10.0519 1 12.9974" stroke="#351C42" stroke-width="1.5" stroke-linecap="round" stroke-linejoin="round"/>
<path d="M15.1101 6.80715C16.4524 6.80715 17.5406 5.7459 17.5406 4.43678C17.5406 3.12766 16.4524 2.06641 15.1101 2.06641C13.7678 2.06641 12.6797 3.12766 12.6797 4.43678C12.6797 5.7459 13.7678 6.80715 15.1101 6.80715Z" stroke="#351C42" stroke-width="1.4"/>
<path d="M19.0002 10.5973C19.0002 8.50269 17.2593 6.80469 15.1116 6.80469C13.9289 6.80469 12.8694 7.3196 12.1562 8.1321" stroke="#351C42" stroke-width="1.4" stroke-linecap="round" stroke-linejoin="round"/>
</g>
<defs>
<clipPath id="clip0_6_283">
<rect width="20" height="14" fill="white"/>
</clipPath>
</defs>
</svg>
