<svg width="35" height="32" viewBox="0 0 35 32" fill="none" xmlns="http://www.w3.org/2000/svg">
<path d="M33.3958 16.3334C33.3958 21.6953 29.0491 26.042 23.6872 26.042C18.3253 26.042 13.9786 21.6953 13.9786 16.3334C13.9786 10.9716 18.3253 6.62487 23.6872 6.62487C29.0491 6.62487 33.3958 10.9716 33.3958 16.3334Z" stroke="#552F88" stroke-width="1.875" stroke-miterlimit="10"/>
<path d="M10.4144 10.9833H4.55701" stroke="#552F88" stroke-width="1.875" stroke-miterlimit="10" stroke-linecap="round"/>
<path d="M10.4144 21.6835H4.55701" stroke="#552F88" stroke-width="1.875" stroke-miterlimit="10" stroke-linecap="round"/>
<path d="M10 15.9999L2 15.9999" stroke="#552F88" stroke-width="1.875" stroke-miterlimit="10" stroke-linecap="round"/>
<path d="M21.6953 18.3254C21.6953 19.4255 22.5872 20.3173 23.6873 20.3173C24.7874 20.3173 25.6792 19.4255 25.6792 18.3254C25.6792 17.2253 24.7874 16.3334 23.6873 16.3334C22.5872 16.3334 21.6953 15.4416 21.6953 14.3415C21.6953 13.2414 22.5872 12.3496 23.6873 12.3496C24.7874 12.3496 25.6792 13.2414 25.6792 14.3415" stroke="#552F88" stroke-width="1.875" stroke-miterlimit="10"/>
<path d="M23.6873 12.3495V10.0431" stroke="#552F88" stroke-width="1.875" stroke-miterlimit="10" stroke-linecap="round"/>
<path d="M23.6873 20.3173V22.6238" stroke="#552F88" stroke-width="1.875" stroke-miterlimit="10" stroke-linecap="round"/>
</svg>
