<svg width="32" height="32" viewBox="0 0 32 32" fill="none" xmlns="http://www.w3.org/2000/svg">
<rect x="0.5" y="0.5" width="31" height="31" rx="15.5" stroke="#FFC300"/>
<path d="M18.9833 16C18.9833 17.65 17.65 18.9833 16 18.9833C14.35 18.9833 13.0167 17.65 13.0167 16C13.0167 14.35 14.35 13.0167 16 13.0167C17.65 13.0167 18.9833 14.35 18.9833 16Z" stroke="#FFC300" stroke-width="1.5" stroke-linecap="round" stroke-linejoin="round"/>
<path d="M16 22.8917C18.9417 22.8917 21.6833 21.1583 23.5917 18.1583C24.3417 16.9833 24.3417 15.0083 23.5917 13.8333C21.6833 10.8333 18.9417 9.10001 16 9.10001C13.0583 9.10001 10.3167 10.8333 8.40833 13.8333C7.65833 15.0083 7.65833 16.9833 8.40833 18.1583C10.3167 21.1583 13.0583 22.8917 16 22.8917Z" stroke="#FFC300" stroke-width="1.5" stroke-linecap="round" stroke-linejoin="round"/>
</svg>
